# xmcd
#
# Track frame offsets:
#	150
#	16415
#	28415
#	38860
#	53151
#	67607
#	88942
#	103782
#	114187
#	126495
#	141869
#	157742
#
# Disc length: 2326 seconds
#
# Revision: 1
# Processed by: cddbd v1.5.2PL0 Copyright (c) Steve Scherf et al.
# Submitted via: audiograbber 1.83.01
#
DISCID=9c09140c
DTITLE=Buzz Kirkpatrick  - You Wouldn't Know It Was Me. 
DYEAR=2003
DGENRE=Country
TTITLE0=Learning Here
TTITLE1=Are You Though with Me
TTITLE2=You Wouldn't Know It Was Me. 
TTITLE3=The Nip and Tuck Railroad
TTITLE4=Cell Mates
TTITLE5=Another Link in the Chain
TTITLE6=Maxine
TTITLE7=T.O.
TTITLE8=Cold Feet
TTITLE9=Fact of the Matter (Charlies Song)
TTITLE10=Daily Mail
TTITLE11=Let.s Go
EXTD=
EXTT0=
EXTT1=
EXTT2=
EXTT3=
EXTT4=
EXTT5=
EXTT6=
EXTT7=
EXTT8=
EXTT9=
EXTT10=
EXTT11=
PLAYORDER=
